<svg width="24" height="24" viewBox="0 0 24 24" fill="none" xmlns="http://www.w3.org/2000/svg">
<path fill-rule="evenodd" clip-rule="evenodd" d="M21.3625 14.8137C21.3625 14.8137 23.3029 16.7691 23.7829 17.674C23.7923 17.687 23.7996 17.7015 23.8045 17.7168C24.0001 18.0511 24.0481 18.3131 23.9521 18.5066C23.7901 18.8261 23.2417 18.9865 23.0557 19H19.6261C19.3873 19 18.8905 18.9363 18.2857 18.5102C17.8237 18.1809 17.3641 17.6384 16.9189 17.1083C16.2541 16.321 15.6793 15.6377 15.0973 15.6377C15.0238 15.6376 14.9508 15.65 14.8813 15.6745C14.4409 15.8165 13.8817 16.4569 13.8817 18.1625C13.8817 18.6963 13.4689 19 13.1797 19H11.6089C11.0737 19 8.28732 18.809 5.81651 16.1508C2.78891 12.8963 0.0697081 6.36768 0.0433081 6.31013C-0.125892 5.8877 0.229308 5.65751 0.613309 5.65751H4.07651C4.54091 5.65751 4.69211 5.94403 4.79771 6.20115C4.92011 6.49624 5.37371 7.67658 6.11771 9.00262C7.32252 11.16 8.06292 12.038 8.65452 12.038C8.76566 12.0383 8.87493 12.0087 8.97132 11.9522C9.74412 11.5188 9.60012 8.70264 9.56412 8.12227C9.56412 8.00962 9.56292 6.86479 9.16692 6.31135C8.88372 5.91464 8.40132 5.76036 8.10972 5.70404C8.18772 5.58895 8.35332 5.41263 8.56572 5.30855C9.09492 5.03918 10.0513 5 11.0005 5H11.5273C12.5569 5.01469 12.8233 5.08204 13.1977 5.17876C13.9513 5.36243 13.9657 5.86077 13.8997 7.55781C13.8805 8.04268 13.8601 8.58877 13.8601 9.23159C13.8601 9.36872 13.8541 9.52178 13.8541 9.67728C13.8313 10.5478 13.8013 11.5286 14.4037 11.9314C14.4819 11.9811 14.5721 12.0074 14.6641 12.0073C14.8729 12.0073 15.4981 12.0073 17.1937 9.03813C17.9377 7.72678 18.5137 6.18034 18.5533 6.06402C18.5869 5.99913 18.6877 5.81669 18.8101 5.74322C18.8972 5.69595 18.9947 5.67234 19.0933 5.67465H23.1673C23.6113 5.67465 23.9125 5.74322 23.9713 5.91464C24.0697 6.19258 23.9521 7.04111 22.0921 9.60749C21.7789 10.0348 21.5041 10.4046 21.2629 10.7278C19.5769 12.9857 19.5769 13.0995 21.3625 14.8137Z" fill="white"/>
</svg>
